<?xml version="1.0" encoding="UTF-8"?>
<svg version="1.1" xmlns="http://www.w3.org/2000/svg" width="512" height="512">
<path d="M0 0 C0.79792969 0.68964844 1.59585937 1.37929687 2.41796875 2.08984375 C4.98890087 4.3501386 7.50157257 6.65979404 10 9 C10.73839111 9.68739258 10.73839111 9.68739258 11.49169922 10.38867188 C24.85084815 22.92770477 35.46819927 37.40937148 45 53 C45.86818359 54.34964844 45.86818359 54.34964844 46.75390625 55.7265625 C67.51798862 89.161071 76.90102242 131.4234371 77.52670288 170.41796875 C77.55032465 171.79185748 77.58303177 173.16562395 77.62539673 174.5390625 C77.96409436 186.6941923 77.96409436 186.6941923 74.47265625 191.05078125 C72.81713867 192.59814453 72.81713867 192.59814453 71 194 C70.38680908 194.47937012 69.77361816 194.95874023 69.1418457 195.45263672 C67.09774774 196.94660604 65.00844791 198.3244051 62.875 199.6875 C62.08859131 200.19877441 61.30218262 200.71004883 60.49194336 201.23681641 C58.00494594 202.84144178 55.50522821 204.42401219 53 206 C52.22317871 206.49161621 51.44635742 206.98323242 50.64599609 207.48974609 C23.01892 224.8561668 -6.26175731 238.61154197 -37.1875 248.9375 C-37.86911194 249.16529144 -38.55072388 249.39308289 -39.25299072 249.6277771 C-48.74882119 252.78122496 -58.30582882 255.52066123 -68 258 C-68.21914063 259.07636719 -68.43828125 260.15273438 -68.6640625 261.26171875 C-73.6590466 284.69744014 -85.48238969 304.83121201 -105.75390625 318.03515625 C-125.67054591 330.09059518 -148.21110272 334.11717372 -171.05078125 329.03515625 C-193.2068667 323.53030107 -211.02099637 309.31955914 -223.1875 290.1875 C-229.38419827 279.36011687 -232.07764364 268.17492363 -234 256 C-234.70793701 255.79955078 -235.41587402 255.59910156 -236.14526367 255.39257812 C-275.8879201 244.06779888 -316.06796812 228.06967302 -350 204 C-345.5128517 250.88612099 -317.26145525 297.44242607 -281.95947266 327.75195312 C-239.75503579 362.52146319 -184.20581647 380.18575064 -129.66796875 375.5 C-85.04040058 371.11486211 -41.95842007 355.13078125 -9 324 C-7.71189298 322.91243658 -6.42030466 321.82898087 -5.125 320.75 C20.94543707 297.81428482 37.93714519 265.74813311 48.94384766 233.28857422 C49.29882324 232.25748535 49.65379883 231.22639648 50.01953125 230.1640625 C50.48516479 228.77888428 50.48516479 228.77888428 50.96020508 227.36572266 C52.03313163 224.92461952 52.90426131 223.62668781 55 222 C58.90129801 220.98855237 61.09079221 220.59590765 64.8125 222.25 C67.78743248 224.62994598 68.91533479 226.23995946 69.33984375 230.05078125 C68.90066065 235.15439174 67.37410726 239.4215729 65.5625 244.1875 C65.20051514 245.15365234 64.83853027 246.11980469 64.46557617 247.11523438 C54.01808558 274.58054126 40.13863968 300.23692319 19.99609375 321.8515625 C18.17614754 323.81040872 16.46282627 325.82295875 14.75 327.875 C-21.12142503 368.87091432 -77.21668032 390.86639881 -130.56884766 394.55029297 C-190.41235682 397.92685793 -250.47837617 379.85574122 -296.01953125 340.3828125 C-298.54742598 338.11985899 -301.02127942 335.80442272 -303.47314453 333.45947266 C-304.50315775 332.47491573 -305.53812459 331.4955186 -306.57763672 330.52099609 C-325.03437217 313.17536846 -339.36341229 291.91353043 -350 269 C-350.44786865 268.06003174 -350.44786865 268.06003174 -350.90478516 267.10107422 C-362.46582672 242.76303413 -375.2998389 207.29304524 -371 180 C-368.75544769 177.15721946 -367.33238332 176.12888333 -363.9375 174.8125 C-357.77117446 175.10613455 -353.93680346 178.4984577 -349 182 C-338.17187135 189.49439331 -327.01385442 196.21596517 -315.50146484 202.60986328 C-313.94922112 203.47249024 -312.3995464 204.33977886 -310.85400391 205.21435547 C-286.29186125 219.10097279 -259.69528808 228.21456657 -233 237 C-232.94593994 236.41557129 -232.89187988 235.83114258 -232.83618164 235.22900391 C-230.77735161 214.70813709 -219.17044769 196.48809939 -203.8046875 183.1328125 C-185.2676058 169.03636876 -163.04588805 162.7587266 -139.87890625 165.42578125 C-118.6150941 168.37124755 -99.0934906 179.43937231 -85.48828125 196.0703125 C-76.4423797 208.57177916 -68.85773558 223.28181437 -69 239 C-26.59095763 225.64986839 19.78777226 210.44978554 54.68310547 181.796875 C57 180 57 180 59 180 C58.0579388 143.10867536 52.56605245 106.56585062 34.90820312 73.69873047 C34.09979156 72.18665314 33.32115838 70.65874034 32.546875 69.12890625 C25.30357024 55.12102089 15.64825714 42.56905986 5 31 C4.24662354 30.17870605 4.24662354 30.17870605 3.47802734 29.34082031 C-32.21461539 -9.07636461 -86.14352484 -31.04251056 -138.1015625 -33.12426758 C-175.35995918 -34.02721342 -212.97502353 -27.93434642 -246.06445312 -10.04589844 C-248.02890383 -8.98438143 -250.00609129 -7.94952514 -251.984375 -6.9140625 C-265.9789527 0.54767076 -278.57138832 10.00960196 -290 21 C-290.52271484 21.49161621 -291.04542969 21.98323242 -291.58398438 22.48974609 C-304.58896165 34.75698378 -315.1840517 48.42417892 -324 64 C-324.38365723 64.66773438 -324.76731445 65.33546875 -325.16259766 66.0234375 C-339.63313738 91.4429508 -347.71790341 118.9991783 -351.62036133 147.89233398 C-352.94497312 157.27787048 -352.94497312 157.27787048 -356 161 C-359.75047482 163.50031654 -361.55856266 163.53603554 -366 163 C-368.9375 161.125 -368.9375 161.125 -371 158 C-371.84338371 151.09444748 -370.60816025 144.09813433 -369.375 137.3125 C-369.19606201 136.31919678 -369.01712402 135.32589355 -368.83276367 134.30249023 C-364.11122085 109.02202369 -356.31131757 84.63542151 -344 62 C-343.64969727 61.3409668 -343.29939453 60.68193359 -342.93847656 60.00292969 C-331.01948459 37.61064558 -314.80846535 16.0190198 -295 0 C-293.94883453 -0.88626324 -292.89809415 -1.77303078 -291.84765625 -2.66015625 C-220.19402418 -62.41739771 -108.94268324 -69.84600878 0 0 Z M-201.65429688 206.33349609 C-212.58853833 219.8743401 -217.38981665 237.75452865 -216 255 C-212.69222535 273.92047101 -204.24376256 289.05395685 -189 301 C-175.2894378 310.52226717 -158.6638844 315.18678198 -141.98632812 312.69970703 C-122.92658303 309.10655143 -107.14324651 299.31286609 -96.08984375 283.21875 C-86.14038897 267.16442806 -83.95304167 250.09150155 -87.9609375 231.8125 C-90.73577663 221.63113538 -94.87876706 212.80991185 -102 205 C-102.66773438 204.24074219 -103.33546875 203.48148437 -104.0234375 202.69921875 C-113.91247276 192.07832348 -127.8366457 184.96738648 -142.42504883 183.80712891 C-166.06882807 183.05479575 -185.54681658 187.79438449 -201.65429688 206.33349609 Z " fill="#000000" transform="translate(403,85)"/>
<path d="M0 0 C0.68642578 -0.020625 1.37285156 -0.04125 2.08007812 -0.0625 C7.16771793 -0.10100626 10.66161776 0.9009063 15.1875 3.25 C17.05993424 5.61089534 17.17971556 7.18902191 17.5625 10.1875 C17.0849856 14.08720096 16.06583732 15.59889984 13.1875 18.25 C8.97506886 19.24327211 5.11614965 19.2552785 0.8125 19.0625 C-4.98466233 19.04271446 -9.25310396 19.5092228 -13.8125 23.25 C-19.64122281 29.60279657 -21.18305788 34.59617534 -21.08984375 43.171875 C-20.55157374 49.14591402 -18.21416423 52.7482169 -14.1875 57.0625 C-9.49085197 60.53188322 -4.00108176 62.40005091 1.84375 62.125 C8.35127554 61.02734509 12.91373246 58.71324817 17.4375 53.8125 C21.46756417 47.91133461 21.48266978 42.61738371 21.6484375 35.625 C22.27438238 31.70604073 23.43600466 30.05302147 26.1875 27.25 C29.36628694 25.66060653 31.6831772 25.83423289 35.1875 26.25 C38.67897974 29.55425546 39.99699165 31.14008179 40.81640625 35.9140625 C40.59165625 49.31973888 38.23632934 60.10647855 28.52734375 69.9296875 C19.28824883 78.39008877 8.61569925 80.87172158 -3.73046875 80.5625 C-15.27876849 79.91538538 -23.82456333 74.6662149 -31.5625 66.4375 C-40.15353189 56.21848718 -40.88790871 44.06992674 -39.8125 31.25 C-38.98934184 27.5293251 -37.71699084 24.53687828 -35.8125 21.25 C-35.38839844 20.47398437 -34.96429688 19.69796875 -34.52734375 18.8984375 C-28.87121327 9.47680511 -20.31619597 4.05959118 -10.0390625 0.6640625 C-6.70337322 0.04374134 -3.38094385 0.02497465 0 0 Z " fill="#000000" transform="translate(251.8125,292.75)"/>
<path d="M0 0 C2.27903592 1.75555178 4.2232087 3.43130868 6.25 5.4375 C7.10078125 6.2560144 7.10078125 6.2560144 7.96875 7.09106445 C9.11916271 8.20180217 10.26442389 9.31790186 11.40429688 10.43945312 C12.78450427 11.78925204 14.19439658 13.10857167 15.609375 14.421875 C30.83187071 28.84842322 42.06977768 47.20123444 51.6875 65.6875 C52.02692627 66.32244385 52.36635254 66.9573877 52.71606445 67.61157227 C54.85913824 71.88919528 55.50738664 75.24325022 55 80 C52.74331324 82.96593118 51.01115924 84.58516544 47.5625 86 C43.86806396 86 42.1104057 85.02717984 39 83 C37.03793829 80.25543824 35.63624873 77.2897534 34.1875 74.25 C33.31415298 72.51673703 32.43781134 70.78497996 31.55859375 69.0546875 C30.91059814 67.76643066 30.91059814 67.76643066 30.24951172 66.45214844 C20.00014906 46.33792442 5.07230801 30.07542292 -11.37109375 14.796875 C-13.88211577 12.02692265 -13.93573988 9.66282669 -14 6 C-12.70080758 2.75201894 -11.69052626 1.41058318 -8.6875 -0.375 C-5.29666762 -1.16356567 -3.3730704 -0.91992829 0 0 Z " fill="#000000" transform="translate(377,108)"/>
<path d="M0 0 C2.58697663 2.22787789 3.09807187 4.11482746 3.69140625 7.4375 C3.06640625 10.9375 3.06640625 10.9375 1.12890625 13.875 C-4.98562343 17.99294856 -13.275369 15.82677599 -20.24609375 14.6875 C-21.42268555 14.52314453 -21.42268555 14.52314453 -22.62304688 14.35546875 C-27.2563043 13.60753425 -29.97657221 12.85992446 -32.93359375 8.9375 C-34.36021594 6.08425563 -34.24393243 4.10295451 -33.93359375 0.9375 C-31.07547701 -3.65590191 -31.07547701 -3.65590191 -28.1015625 -4.71484375 C-19.65818182 -6.06882732 -7.44994148 -4.09370522 0 0 Z " fill="#000000" transform="translate(300.93359375,71.0625)"/>
<path d="M0 0 C2.85383312 0.99076338 5.4627054 2.33078057 8.125 3.75 C8.81464844 4.09804687 9.50429688 4.44609375 10.21484375 4.8046875 C19.90314916 9.80629832 19.90314916 9.80629832 22 14 C22.43023798 17.87214182 22.31669086 19.52496371 20.125 22.8125 C17.71310882 25.29532916 16.81852987 25.90740612 13.41015625 26.29296875 C8.88207903 25.90395868 5.4892973 24.28354899 1.4375 22.3125 C0.69564453 21.97283203 -0.04621094 21.63316406 -0.81054688 21.28320312 C-5.98596895 18.81761914 -10.82351121 16.13730344 -12.9375 10.5 C-13.03655379 6.53784855 -12.00458696 4.0790008 -9.3125 1.1875 C-6.0001325 -0.51344547 -3.71083416 -0.29641648 0 0 Z " fill="#000000" transform="translate(331,80)"/>
</svg>
